<svg width="30" height="30" viewBox="0 0 30 30" fill="none" xmlns="http://www.w3.org/2000/svg">
<circle cx="15" cy="15" r="15" fill="#D4E7F3"/>
<path d="M15.47 11.82L18.79 15.14L15.79 18.14L15.08 18.85C14.9877 18.9451 14.9361 19.0725 14.9361 19.205C14.9361 19.3375 14.9877 19.4648 15.08 19.56L16.28 20.76C16.3751 20.8522 16.5024 20.9038 16.635 20.9038C16.7675 20.9038 16.8948 20.8522 16.99 20.76L17.7 20.05L21.59 16.16C21.8684 15.8775 22.0246 15.4967 22.0246 15.1C22.0246 14.7033 21.8684 14.3225 21.59 14.04L17.38 9.90999L16.67 9.19999C16.5748 9.10774 16.4475 9.05615 16.315 9.05615C16.1824 9.05615 16.0551 9.10774 15.96 9.19999L14.76 10.4C14.7131 10.4465 14.6759 10.5018 14.6505 10.5627C14.6251 10.6236 14.6121 10.689 14.6121 10.755C14.6121 10.821 14.6251 10.8863 14.6505 10.9473C14.6759 11.0082 14.7131 11.0635 14.76 11.11L15.47 11.82Z" fill="#6D7987"/>
<path d="M8.15998 11.11L8.86998 11.82L12.19 15.14L9.18998 18.14L8.47998 18.85C8.38773 18.9451 8.33615 19.0725 8.33615 19.205C8.33615 19.3375 8.38773 19.4648 8.47998 19.56L9.67998 20.76C9.77513 20.8522 9.90246 20.9038 10.035 20.9038C10.1675 20.9038 10.2948 20.8522 10.39 20.76L11.1 20.05L15 16.2C15.2785 15.9175 15.4346 15.5367 15.4346 15.14C15.4346 14.7433 15.2785 14.3625 15 14.08L10.78 9.90999L10.07 9.19999C9.97483 9.10774 9.84751 9.05615 9.71498 9.05615C9.58246 9.05615 9.45513 9.10774 9.35998 9.19999L8.15998 10.4C8.11312 10.4465 8.07592 10.5018 8.05054 10.5627C8.02515 10.6236 8.01208 10.689 8.01208 10.755C8.01208 10.821 8.02515 10.8863 8.05054 10.9473C8.07592 11.0082 8.11312 11.0635 8.15998 11.11Z" fill="#6D7987"/>
</svg>
