<svg width="30" height="30" viewBox="0 0 30 30" fill="none" xmlns="http://www.w3.org/2000/svg">
<circle cx="15" cy="15" r="15" fill="#D4E7F3"/>
<path d="M15.26 15.5701L21.76 22.1001C21.8689 22.194 22.0026 22.2547 22.145 22.2749C22.2874 22.295 22.4326 22.2738 22.5633 22.2137C22.694 22.1536 22.8046 22.0573 22.8821 21.936C22.9595 21.8148 23.0005 21.6739 23 21.5301V8.47007C22.998 8.32616 22.9551 8.1858 22.8764 8.06531C22.7977 7.94482 22.6864 7.84916 22.5554 7.78945C22.4245 7.72974 22.2793 7.70843 22.1367 7.72802C21.9941 7.7476 21.86 7.80726 21.75 7.90007L15.26 14.4401C15.1779 14.5095 15.1119 14.5961 15.0666 14.6936C15.0214 14.7912 14.9979 14.8975 14.9979 15.0051C14.9979 15.1126 15.0214 15.2189 15.0666 15.3165C15.1119 15.4141 15.1779 15.5006 15.26 15.5701Z" fill="#6D7987"/>
<path d="M7.26211 15.8491L13.7621 22.3791C13.871 22.4731 14.0046 22.5338 14.147 22.5539C14.2895 22.5741 14.4347 22.5528 14.5654 22.4928C14.6961 22.4327 14.8067 22.3363 14.8842 22.2151C14.9616 22.0939 15.0025 21.953 15.0021 21.8091V8.74912C15.0001 8.60522 14.9572 8.46486 14.8785 8.34437C14.7998 8.22388 14.6885 8.12821 14.5575 8.0685C14.4266 8.00879 14.2814 7.98749 14.1388 8.00707C13.9962 8.02665 13.8621 8.08631 13.7521 8.17912L7.26211 14.7191C7.17998 14.7886 7.11399 14.8751 7.06872 14.9727C7.02345 15.0703 7 15.1766 7 15.2841C7 15.3917 7.02345 15.498 7.06872 15.5955C7.11399 15.6931 7.17998 15.7797 7.26211 15.8491Z" fill="#6D7987"/>
</svg>
