<svg width="30" height="30" viewBox="0 0 30 30" fill="none" xmlns="http://www.w3.org/2000/svg">
<circle cx="15" cy="15" r="15" fill="#D4E7F3"/>
<g clip-path="url(#clip0)">
<path d="M17.3706 15.0006L21.509 10.8626C22.1638 10.2078 22.1638 9.1463 21.509 8.49183C20.8548 7.83736 19.7927 7.83736 19.1385 8.49183L15.0002 12.6305L10.8618 8.49183C10.2077 7.83736 9.14548 7.83736 8.49135 8.49183C7.83654 9.14663 7.83654 10.2081 8.49135 10.8626L12.6294 15.0006L8.49135 19.1387C7.83654 19.7935 7.83654 20.855 8.49135 21.5095C8.81825 21.837 9.24774 22.0003 9.67657 22.0003C10.1051 22.0003 10.5349 21.837 10.8618 21.5095L15.0002 17.3714L19.1385 21.5098C19.4658 21.8374 19.8949 22.0006 20.3238 22.0006C20.7526 22.0006 21.1821 21.8374 21.509 21.5098C22.1638 20.855 22.1638 19.7935 21.509 19.139L17.3706 15.0006Z" fill="#6D7987"/>
</g>
<defs>
<clipPath id="clip0">
<rect width="14" height="14" fill="white" transform="translate(8 8)"/>
</clipPath>
</defs>
</svg>
