<svg width="50" height="53" viewBox="0 0 50 53" fill="none" xmlns="http://www.w3.org/2000/svg">
<circle cx="25" cy="25" r="25" fill="#D4E7F3"/>
<g clip-path="url(#clip0)">
<path d="M14.8557 30.3648C16.4166 30.3563 17.3981 29.3767 17.4046 27.8208C17.4108 26.6351 17.417 25.4495 17.4031 24.2638C17.3984 23.9386 17.4987 23.7686 17.8039 23.6839C18.3994 23.5093 18.98 23.2698 19.5805 23.1303C22.3927 22.4927 25.2344 22.4454 28.0857 22.7384C29.5013 22.8849 30.9019 23.1564 32.2371 23.703C32.5071 23.8134 32.6171 23.9535 32.6168 24.2637C32.5956 25.4344 32.6045 26.605 32.6083 27.7807C32.6117 29.4166 33.5713 30.3781 35.2172 30.3847C36.1528 30.3907 37.0783 30.3866 38.0138 30.3925C38.9743 30.3934 39.9349 30.4044 40.8954 30.3953C42.4463 30.3768 43.4279 29.3972 43.4394 27.8464C43.4506 26.6557 43.4217 25.475 43.4529 24.2844C43.484 23.1838 43.1147 22.2429 42.4101 21.4167C41.2608 20.0748 39.7808 19.2029 38.2056 18.4859C34.9552 16.9919 31.509 16.2231 27.9523 15.9144C23.145 15.4945 18.4568 16.0452 13.8977 17.6166C11.8458 18.325 9.8988 19.2386 8.25643 20.7078C7.12479 21.7173 6.46324 22.9173 6.55174 24.4983C6.61071 25.579 6.5546 26.6745 6.55854 27.7601C6.56696 29.3711 7.54155 30.3576 9.13744 30.3641C11.0435 30.371 12.9496 30.3679 14.8557 30.3648Z" fill="white"/>
</g>
<defs>
<clipPath id="clip0">
<rect width="34" height="34" fill="white" transform="translate(49.041 28.0237) rotate(135.056)"/>
</clipPath>
</defs>
</svg>
