<svg width="32" height="24" viewBox="0 0 32 24" fill="none" xmlns="http://www.w3.org/2000/svg">
<path d="M21.6403 10.62L12.3203 2.69003C12.2296 2.61698 12.1167 2.57715 12.0003 2.57715C11.8838 2.57715 11.7709 2.61698 11.6803 2.69003L2.36027 10.62C2.25458 10.7042 2.16706 10.809 2.10298 10.928C2.0389 11.0469 1.9996 11.1777 1.98745 11.3122C1.9753 11.4468 1.99055 11.5825 2.03229 11.711C2.07402 11.8395 2.14137 11.9583 2.23027 12.06C2.31422 12.1613 2.41732 12.245 2.53367 12.3063C2.65002 12.3677 2.77733 12.4055 2.9083 12.4176C3.03928 12.4296 3.17135 12.4158 3.29695 12.3767C3.42256 12.3377 3.53923 12.2742 3.64027 12.19L11.6403 5.28003C11.7292 5.20332 11.8428 5.16111 11.9603 5.16111C12.0777 5.16111 12.1913 5.20332 12.2803 5.28003L20.2803 12.19C20.3813 12.2742 20.498 12.3377 20.6236 12.3767C20.7492 12.4158 20.8813 12.4296 21.0122 12.4176C21.1432 12.4055 21.2705 12.3677 21.3869 12.3063C21.5032 12.245 21.6063 12.1613 21.6903 12.06C21.7839 11.9634 21.8571 11.8489 21.9054 11.7234C21.9537 11.5978 21.9762 11.4638 21.9716 11.3294C21.9669 11.195 21.9352 11.0628 21.8782 10.9409C21.8213 10.8191 21.7404 10.7099 21.6403 10.62Z" fill="#1F363D"/>
<path d="M12.33 6.72007C12.2398 6.63785 12.1221 6.59229 12 6.59229C11.8779 6.59229 11.7602 6.63785 11.67 6.72007L4.51 13.0001C4.35264 13.1374 4.22591 13.3063 4.13805 13.4958C4.05019 13.6854 4.00316 13.8912 4 14.1001V19.9201C4 20.3179 4.15804 20.6994 4.43934 20.9807C4.72064 21.262 5.10218 21.4201 5.5 21.4201H9.75C9.88261 21.4201 10.0098 21.3674 10.1036 21.2736C10.1973 21.1799 10.25 21.0527 10.25 20.9201V17.4301C10.25 17.1649 10.3554 16.9105 10.5429 16.723C10.7304 16.5354 10.9848 16.4301 11.25 16.4301H12.75C13.0152 16.4301 13.2696 16.5354 13.4571 16.723C13.6446 16.9105 13.75 17.1649 13.75 17.4301V20.9201C13.75 21.0527 13.8027 21.1799 13.8964 21.2736C13.9902 21.3674 14.1174 21.4201 14.25 21.4201H18.5C18.8978 21.4201 19.2794 21.262 19.5607 20.9807C19.842 20.6994 20 20.3179 20 19.9201V14.1101C19.9952 13.9 19.9475 13.6932 19.8598 13.5023C19.7721 13.3114 19.6462 13.1405 19.49 13.0001L12.33 6.72007Z" fill="#1F363D"/>
<circle cx="24.5" cy="10.5" r="7.5" fill="#A9D0E6"/>
<path d="M27.2988 15H21.709V14.2207L24.6621 10.9395C25.0996 10.4434 25.4004 10.041 25.5645 9.73242C25.7324 9.41992 25.8164 9.09766 25.8164 8.76562C25.8164 8.32031 25.6816 7.95508 25.4121 7.66992C25.1426 7.38477 24.7832 7.24219 24.334 7.24219C23.7949 7.24219 23.375 7.39648 23.0742 7.70508C22.7773 8.00977 22.6289 8.43555 22.6289 8.98242H21.5449C21.5449 8.19727 21.7969 7.5625 22.3008 7.07812C22.8086 6.59375 23.4863 6.35156 24.334 6.35156C25.127 6.35156 25.7539 6.56055 26.2148 6.97852C26.6758 7.39258 26.9062 7.94531 26.9062 8.63672C26.9062 9.47656 26.3711 10.4766 25.3008 11.6367L23.0156 14.1152H27.2988V15Z" fill="#222222"/>
</svg>
