<svg width="30" height="30" viewBox="0 0 30 30" fill="none" xmlns="http://www.w3.org/2000/svg">
<circle cx="15" cy="15" r="15" fill="#D4E7F3"/>
<path d="M15.9199 20.12L23.6299 12.41L24.3299 11.71C24.3767 11.6636 24.4139 11.6083 24.4393 11.5473C24.4647 11.4864 24.4778 11.421 24.4778 11.355C24.4778 11.289 24.4647 11.2237 24.4393 11.1627C24.4139 11.1018 24.3767 11.0465 24.3299 11L22.9199 9.59004C22.8734 9.54317 22.8181 9.50598 22.7572 9.48059C22.6962 9.45521 22.6309 9.44214 22.5649 9.44214C22.4989 9.44214 22.4335 9.45521 22.3726 9.48059C22.3117 9.50598 22.2564 9.54317 22.2099 9.59004L21.5099 10.29L14.8599 16.94L8.48987 10.58L7.78987 9.87004C7.74339 9.82317 7.68809 9.78598 7.62716 9.76059C7.56623 9.73521 7.50088 9.72214 7.43487 9.72214C7.36887 9.72214 7.30351 9.73521 7.24258 9.76059C7.18165 9.78598 7.12635 9.82317 7.07987 9.87004L5.66987 11.28C5.62301 11.3265 5.58581 11.3818 5.56043 11.4427C5.53504 11.5037 5.52197 11.569 5.52197 11.635C5.52197 11.701 5.53504 11.7664 5.56043 11.8273C5.58581 11.8883 5.62301 11.9436 5.66987 11.99L6.36987 12.7L13.7999 20.12C13.9385 20.2603 14.1035 20.3717 14.2855 20.4477C14.4674 20.5238 14.6627 20.5629 14.8599 20.5629C15.0571 20.5629 15.2523 20.5238 15.4343 20.4477C15.6162 20.3717 15.7813 20.2603 15.9199 20.12Z" fill="#495867"/>
</svg>
