<svg width="50" height="50" viewBox="0 0 50 50" fill="none" xmlns="http://www.w3.org/2000/svg">
<path d="M25 8.33325C21.7036 8.33325 18.4813 9.31074 15.7405 11.1421C12.9997 12.9734 10.8635 15.5764 9.60199 18.6219C8.34053 21.6673 8.01048 25.0184 8.65357 28.2514C9.29665 31.4844 10.884 34.4542 13.2149 36.785C15.5457 39.1159 18.5155 40.7033 21.7485 41.3463C24.9815 41.9894 28.3326 41.6594 31.378 40.3979C34.4235 39.1365 37.0265 37.0002 38.8578 34.2594C40.6892 31.5186 41.6667 28.2963 41.6667 24.9999C41.6667 20.5796 39.9107 16.3404 36.7851 13.2148C33.6595 10.0892 29.4203 8.33325 25 8.33325ZM25 37.4999C22.5277 37.4999 20.111 36.7668 18.0554 35.3933C15.9997 34.0198 14.3976 32.0675 13.4515 29.7835C12.5054 27.4994 12.2579 24.9861 12.7402 22.5613C13.2225 20.1365 14.413 17.9092 16.1612 16.1611C17.9093 14.4129 20.1366 13.2224 22.5614 12.7401C24.9861 12.2578 27.4995 12.5053 29.7835 13.4514C32.0676 14.3975 34.0198 15.9997 35.3934 18.0553C36.7669 20.1109 37.5 22.5277 37.5 24.9999C37.5 28.3151 36.183 31.4946 33.8388 33.8388C31.4946 36.183 28.3152 37.4999 25 37.4999Z" fill="white" fill-opacity="0.5"/>
<path d="M26.0417 16.9375H24.4792C24.2029 16.9375 23.9379 17.0472 23.7426 17.2426C23.5472 17.4379 23.4375 17.7029 23.4375 17.9792V25.2708H19.7917C19.5154 25.2708 19.2504 25.3806 19.0551 25.5759C18.8597 25.7713 18.75 26.0362 18.75 26.3125V27.875C18.75 28.1513 18.8597 28.4162 19.0551 28.6116C19.2504 28.8069 19.5154 28.9167 19.7917 28.9167H26.0417C26.3179 28.9167 26.5829 28.8069 26.7782 28.6116C26.9736 28.4162 27.0833 28.1513 27.0833 27.875V25.2708V17.9792C27.0833 17.7029 26.9736 17.4379 26.7782 17.2426C26.5829 17.0472 26.3179 16.9375 26.0417 16.9375Z" fill="white" fill-opacity="0.5"/>
</svg>
