<svg width="50" height="50" viewBox="0 0 50 50" fill="none" xmlns="http://www.w3.org/2000/svg">
<circle cx="25" cy="25" r="25" fill="#495867"/>
<path d="M25 24.1501C28.7923 24.1501 31.8666 21.0758 31.8666 17.2834C31.8666 13.4911 28.7923 10.4167 25 10.4167C21.2076 10.4167 18.1333 13.4911 18.1333 17.2834C18.1333 21.0758 21.2076 24.1501 25 24.1501Z" fill="white"/>
<path d="M31.1833 23.2166C30.3862 24.0547 29.4271 24.722 28.3641 25.1779C27.3012 25.6339 26.1566 25.8691 25 25.8691C23.8434 25.8691 22.6988 25.6339 21.6359 25.1779C20.5729 24.722 19.6138 24.0547 18.8167 23.2166C17.676 23.782 16.715 24.6535 16.041 25.7337C15.367 26.8138 15.0066 28.0601 15 29.3332V36.1499C15.0044 37.0591 15.3675 37.9299 16.0104 38.5728C16.6534 39.2157 17.5241 39.5788 18.4333 39.5832H31.5667C32.4759 39.5788 33.3466 39.2157 33.9896 38.5728C34.6325 37.9299 34.9956 37.0591 35 36.1499V29.3332C34.9934 28.0601 34.633 26.8138 33.959 25.7337C33.285 24.6535 32.324 23.782 31.1833 23.2166Z" fill="white"/>
</svg>
