<svg width="30" height="30" viewBox="0 0 30 30" fill="none" xmlns="http://www.w3.org/2000/svg">
<circle cx="15" cy="15" r="15" fill="#D4E7F3"/>
<g clip-path="url(#clip0)">
<path d="M14.9998 17.6316C16.7892 17.6316 18.1577 16.2632 18.1577 14.4737V8.15789C18.1577 6.36842 16.7892 5 14.9998 5C13.2103 5 11.8419 6.36842 11.8419 8.15789V14.4737C11.8419 16.2632 13.2103 17.6316 14.9998 17.6316ZM20.5787 14.4737C20.5787 17.6316 17.9471 19.8421 14.9998 19.8421C12.0524 19.8421 9.42082 17.6316 9.42082 14.4737H7.63135C7.63135 18.0526 10.4735 21 13.9471 21.5263V25H16.0524V21.5263C19.5261 21 22.3682 18.0527 22.3682 14.4737H20.5787Z" fill="#495867"/>
<path d="M5 5L25 25" stroke="#495867"/>
</g>
<defs>
<clipPath id="clip0">
<rect width="20" height="20" fill="white" transform="translate(5 5)"/>
</clipPath>
</defs>
</svg>
