<svg width="24" height="24" viewBox="0 0 24 24" fill="none" xmlns="http://www.w3.org/2000/svg">
<path d="M11 2.93994C9.41775 2.93994 7.87103 3.40913 6.55544 4.28818C5.23985 5.16724 4.21447 6.41666 3.60897 7.87847C3.00347 9.34028 2.84504 10.9488 3.15372 12.5007C3.4624 14.0525 4.22433 15.478 5.34315 16.5968C6.46197 17.7156 7.88743 18.4775 9.43928 18.7862C10.9911 19.0949 12.5997 18.9365 14.0615 18.331C15.5233 17.7255 16.7727 16.7001 17.6518 15.3845C18.5308 14.0689 19 12.5222 19 10.9399C19 8.81821 18.1571 6.78338 16.6569 5.28309C15.1566 3.7828 13.1217 2.93994 11 2.93994ZM11 15.9399C10.0111 15.9399 9.0444 15.6467 8.22215 15.0973C7.39991 14.5479 6.75904 13.767 6.38061 12.8534C6.00217 11.9397 5.90315 10.9344 6.09608 9.96449C6.289 8.99458 6.76521 8.10367 7.46447 7.40441C8.16373 6.70514 9.05465 6.22894 10.0246 6.03602C10.9945 5.84309 11.9998 5.94211 12.9134 6.32054C13.8271 6.69898 14.6079 7.33984 15.1574 8.16209C15.7068 8.98434 16 9.95103 16 10.9399C16 12.266 15.4732 13.5378 14.5355 14.4755C13.5979 15.4132 12.3261 15.9399 11 15.9399Z" fill="#495867"/>
<path d="M15.4299 17.5731L17.5513 15.4518L22.1474 20.048C22.335 20.2355 22.4403 20.4899 22.4403 20.7551C22.4403 21.0203 22.335 21.2747 22.1474 21.4622L21.4403 22.1693C21.2528 22.3569 20.9985 22.4622 20.7332 22.4622C20.468 22.4622 20.2137 22.3569 20.0261 22.1693L15.4299 17.5731Z" fill="#495867"/>
</svg>
