<svg width="50" height="50" viewBox="0 0 50 50" fill="none" xmlns="http://www.w3.org/2000/svg">
<path d="M5.1748 37.1687H23.5403L39.1783 50.0001V37.1687H44.8252C47.6746 37.1687 49.9916 34.8105 49.9916 31.9107V5.25793C49.9916 2.35819 47.6747 0 44.8252 0H5.1748C2.32544 0 0.00836182 2.35819 0.00836182 5.25793V31.9106C0.00836182 34.8104 2.32544 37.1687 5.1748 37.1687ZM37.1343 19.813C35.1239 19.1357 34.3475 18.042 34.3673 16.8873C34.3673 15.0767 35.9201 13.7039 38.3272 13.7039C39.4621 13.7039 40.4765 13.9617 41.0744 14.2606L40.5375 16.3503C40.0996 16.1108 39.2638 15.7921 38.4279 15.7921C37.6911 15.7921 37.2731 16.091 37.2731 16.5883C37.2731 17.0459 37.6514 17.2854 38.8458 17.7034C40.6961 18.3395 41.4724 19.276 41.4923 20.7084C41.4923 22.519 40.0601 23.8521 37.2731 23.8521C35.9995 23.8521 34.8646 23.5745 34.1294 23.1764L34.6664 21.0074C35.2231 21.346 36.3778 21.7442 37.2732 21.7442C38.1884 21.7442 38.5668 21.4254 38.5668 20.9281C38.5667 20.4293 38.2677 20.1913 37.1343 19.813ZM20.0426 13.9221L20.1814 15.2354H20.2409C20.6588 14.6192 21.5145 13.704 23.1863 13.704C24.4402 13.704 25.4347 14.3401 25.8527 15.3545H25.8924C26.2508 14.8572 26.6886 14.459 27.1462 14.1815C27.6847 13.8627 28.281 13.7041 28.998 13.7041C30.8681 13.7041 32.2822 15.0174 32.2822 17.9218V23.6541H29.3367V18.3611C29.3367 16.9471 28.8776 16.131 27.9029 16.131C27.2073 16.131 26.7085 16.6084 26.5102 17.1866C26.4308 17.4047 26.3913 17.7236 26.3913 17.963V23.6541H23.4458V18.2009C23.4458 16.9669 23.008 16.131 22.0516 16.131C21.2767 16.131 20.8175 16.729 20.6391 17.2263C20.54 17.4643 20.5202 17.7433 20.5202 17.9829V23.6542H17.5747V17.0265C17.5747 15.8139 17.535 14.7781 17.4954 13.9224H20.0426V13.9221ZM11.3876 19.813C9.37717 19.1357 8.60079 18.042 8.62058 16.8873C8.62058 15.0767 10.1734 13.7039 12.5805 13.7039C13.7154 13.7039 14.7313 13.9617 15.3276 14.2606L14.7907 16.3503C14.3528 16.1108 13.517 15.7921 12.6811 15.7921C11.9443 15.7921 11.5263 16.091 11.5263 16.5883C11.5263 17.0459 11.9046 17.2854 13.099 17.7034C14.9493 18.3395 15.7257 19.276 15.7455 20.7084C15.7455 22.519 14.3133 23.8521 11.5263 23.8521C10.2527 23.8521 9.11776 23.5745 8.3826 23.1764L8.91956 21.0074C9.47632 21.346 10.631 21.7442 11.5264 21.7442C12.4417 21.7442 12.82 21.4254 12.82 20.9281C12.82 20.4293 12.521 20.1913 11.3876 19.813Z" fill="white" fill-opacity="0.5"/>
</svg>
