<svg width="50" height="48" viewBox="0 0 50 48" fill="none" xmlns="http://www.w3.org/2000/svg">
<path d="M6.36079 46.8305H13.1693C13.2639 47.4236 13.7555 47.8875 14.3764 47.8875H29.856C30.4791 47.8875 30.9684 47.4259 31.0631 46.8305H37.8716C39.0233 46.8305 39.9557 45.8981 39.9557 44.7465H4.27899C4.27899 45.8981 5.21141 46.8305 6.36079 46.8305Z" fill="white" fill-opacity="0.5"/>
<path d="M48.1559 25.411C46.4203 24.0055 43.9762 23.9825 42.3675 24.1602C42.4137 23.0385 42.4391 21.8915 42.4391 20.6984H0C0 32.1685 1.7356 40.4445 12.7193 43.5324H29.7198C34.0703 42.3116 36.9553 40.2599 38.8686 37.532C43.0368 37.4512 49.7415 35.8103 49.9931 30.0545C50.1016 27.5343 49.0537 26.1357 48.1559 25.411ZM40.6158 34.2409C41.4143 32.1893 41.8875 29.8814 42.1483 27.345C43.2746 27.1604 45.2156 27.0427 46.1965 27.8412C46.3765 27.9889 46.9373 28.4459 46.8727 29.9206C46.7411 32.9024 43.0391 33.904 40.6158 34.2409Z" fill="white" fill-opacity="0.5"/>
<path d="M17.289 19.0876C17.289 19.0876 25.3669 18.4945 21.6649 11.684C18.6923 6.21661 19.3708 3.00867 23.1744 0.109985C23.1744 0.109985 10.7159 3.28331 17.9814 13.1033C20.6471 17.3821 17.289 19.0876 17.289 19.0876Z" fill="white" fill-opacity="0.5"/>
<path d="M22.7336 18.543C22.7336 18.543 29.2052 17.179 25.6832 11.9748C24.4046 9.71768 26.1679 8.91223 26.1679 8.91223C26.1679 8.91223 22.002 9.04378 23.7606 12.6233C25.1685 15.5012 24.7508 17.1352 22.7336 18.543Z" fill="white" fill-opacity="0.5"/>
</svg>
