<svg width="63" height="54" viewBox="0 0 63 54" fill="none" xmlns="http://www.w3.org/2000/svg">
<path d="M31.2086 26.4537C37.8452 26.4537 43.2252 21.0737 43.2252 14.4371C43.2252 7.80045 37.8452 2.42041 31.2086 2.42041C24.5719 2.42041 19.1919 7.80045 19.1919 14.4371C19.1919 21.0737 24.5719 26.4537 31.2086 26.4537Z" fill="white" fill-opacity="0.5"/>
<path d="M42.0294 24.7327C40.6345 26.1993 38.956 27.3671 37.0958 28.1651C35.2357 28.9631 33.2327 29.3745 31.2086 29.3745C29.1845 29.3745 27.1815 28.9631 25.3214 28.1651C23.4612 27.3671 21.7827 26.1993 20.3878 24.7327C18.3946 25.7411 16.722 27.285 15.5576 29.1913C14.3932 31.0976 13.7832 33.2906 13.7961 35.5243V47.4535C13.8027 49.0149 14.4141 50.5131 15.5018 51.6334C16.5894 52.7537 18.0689 53.409 19.6294 53.4618H42.6128C43.4154 53.4812 44.2138 53.3404 44.9613 53.0475C45.7088 52.7546 46.3903 52.3156 46.9661 51.7561C47.5419 51.1966 48.0003 50.5279 48.3145 49.7891C48.6287 49.0503 48.7925 48.2563 48.7961 47.4535V35.5243C48.7928 33.2722 48.1567 31.0663 46.9603 29.1582C45.7638 27.2501 44.0553 25.7166 42.0294 24.7327Z" fill="white" fill-opacity="0.5"/>
<path d="M51.7124 15.0495C53.1969 15.0322 54.6431 14.5763 55.869 13.739C57.0949 12.9017 58.0457 11.7205 58.6019 10.3441C59.1581 8.96763 59.2947 7.45743 58.9945 6.00354C58.6943 4.54964 57.9708 3.21701 56.915 2.17336C55.8593 1.1297 54.5183 0.421656 53.0611 0.138323C51.6038 -0.145009 50.0953 0.0090336 48.7254 0.581064C47.3555 1.15309 46.1853 2.11755 45.3623 3.35307C44.5392 4.58858 44.1 6.03994 44.0999 7.52449C44.0959 8.52121 44.2907 9.50871 44.673 10.4292C45.0552 11.3497 45.6172 12.1848 46.3261 12.8855C47.0349 13.5862 47.8764 14.1385 48.8013 14.51C49.7261 14.8816 50.7158 15.065 51.7124 15.0495Z" fill="white" fill-opacity="0.5"/>
<path d="M10.8792 15.0495C12.3711 15.0668 13.8345 14.6403 15.0834 13.8241C16.3324 13.0078 17.3105 11.8387 17.8935 10.4653C18.4765 9.09194 18.638 7.57624 18.3576 6.11081C18.0772 4.64539 17.3675 3.29639 16.3187 2.23523C15.2699 1.17407 13.9293 0.448646 12.4672 0.151129C11.0052 -0.146387 9.48771 -0.00256481 8.10759 0.564323C6.72747 1.13121 5.54702 2.09557 4.71623 3.33488C3.88544 4.57418 3.44181 6.03249 3.44171 7.5245C3.43393 9.50749 4.21224 11.4128 5.60622 12.8232C7.0002 14.2335 8.89625 15.0341 10.8792 15.0495Z" fill="white" fill-opacity="0.5"/>
<path d="M58.421 14.0288C56.8817 15.6542 54.8094 16.6721 52.5821 16.897C50.3548 17.1218 48.1209 16.5387 46.2877 15.2538C46.1409 17.4717 45.514 19.6313 44.4502 21.583C46.2762 22.6784 47.8173 24.19 48.9476 25.9945C50.078 27.7991 50.7656 29.8453 50.9544 31.9663H58.8294C59.8272 31.9663 60.7842 31.5699 61.4899 30.8643C62.1955 30.1587 62.5919 29.2017 62.5919 28.2038V20.7371C62.5834 19.343 62.1893 17.9784 61.4531 16.7944C60.717 15.6104 59.6676 14.6532 58.421 14.0288Z" fill="white" fill-opacity="0.5"/>
<path d="M17.9667 21.583C16.8961 19.6761 16.2681 17.5529 16.1292 15.3705C14.2979 16.5935 12.0933 17.1296 9.90491 16.8841C7.71657 16.6386 5.68551 15.6272 4.17083 14.0288C2.92429 14.6532 1.87486 15.6104 1.13872 16.7944C0.402587 17.9784 0.00846798 19.343 0 20.7371V28.2038C0 29.2017 0.396405 30.1587 1.10201 30.8643C1.80762 31.5699 2.76462 31.9663 3.7625 31.9663H11.4625C11.6535 29.846 12.3421 27.8006 13.4722 25.9964C14.6024 24.1922 16.1422 22.6801 17.9667 21.583Z" fill="white" fill-opacity="0.5"/>
</svg>
