<svg width="50" height="50" viewBox="0 0 50 50" fill="none" xmlns="http://www.w3.org/2000/svg">
<circle cx="25" cy="25" r="25" fill="#495867"/>
<path d="M24.9996 24.0649C29.1712 24.0649 32.553 20.6832 32.553 16.5116C32.553 12.34 29.1712 8.95825 24.9996 8.95825C20.828 8.95825 17.4463 12.34 17.4463 16.5116C17.4463 20.6832 20.828 24.0649 24.9996 24.0649Z" fill="white"/>
<path d="M31.8017 23.0383C30.9249 23.9602 29.8698 24.6943 28.7005 25.1959C27.5313 25.6974 26.2723 25.9561 25 25.9561C23.7277 25.9561 22.4687 25.6974 21.2995 25.1959C20.1302 24.6943 19.0751 23.9602 18.1983 23.0383C16.9436 23.6604 15.8865 24.619 15.1451 25.8072C14.4037 26.9953 14.0072 28.3662 14 29.7667V37.265C14.0048 38.2651 14.4043 39.223 15.1115 39.9302C15.8187 40.6374 16.7765 41.0368 17.7767 41.0417H32.2233C33.2235 41.0368 34.1813 40.6374 34.8885 39.9302C35.5957 39.223 35.9952 38.2651 36 37.265V29.7667C35.9928 28.3662 35.5963 26.9953 34.8549 25.8072C34.1135 24.619 33.0564 23.6604 31.8017 23.0383Z" fill="white"/>
</svg>
