<svg xmlns="http://www.w3.org/2000/svg" id="svg">
    <symbol id="24-hours" viewBox="0 0 417.12 417.12">
		<path d="M409.12 200.741a8 8 0 0 0-8 8c-.06 106.525-86.464 192.831-192.988 192.772-106.525-.06-192.832-86.464-192.772-192.989C15.42 102 101.824 15.693 208.348 15.753A192.88 192.88 0 0 1 345.12 72.741l-17.84-.72a8 8 0 0 0 0 16l36.72 1.52a7.998 7.998 0 0 0 2.96-.56l.88-.56a10.081 10.081 0 0 0 3.36-3.44 8.044 8.044 0 0 0 0-1.28 7.97 7.97 0 0 0 .4-1.52l3.2-36.72a8.03 8.03 0 0 0-16-1.36l-1.6 18.16c-80.799-82.092-212.848-83.14-294.939-2.341s-83.14 212.848-2.341 294.939 212.848 83.14 294.939 2.341a208.563 208.563 0 0 0 62.261-148.459 8 8 0 0 0-8-8z" fill="#FFF"/><path d="M200.4 256.341a20.243 20.243 0 0 0-12.64-3.44h-56a60.386 60.386 0 0 1 5.2-6.96 171.507 171.507 0 0 1 22-20.32c10.667-8.747 18.293-15.147 22.88-19.2a74.636 74.636 0 0 0 13.36-16.96 45.436 45.436 0 0 0 6.56-24 43.999 43.999 0 0 0-11.92-30.08 41.823 41.823 0 0 0-13.12-9.36 68.23 68.23 0 0 0-27.52-5.28 63.988 63.988 0 0 0-23.6 4 48.808 48.808 0 0 0-16.64 10.48 43.909 43.909 0 0 0-9.84 14.48 39.987 39.987 0 0 0-3.28 15.36 12.961 12.961 0 0 0 3.52 9.6 11.998 11.998 0 0 0 8.88 3.52 11.198 11.198 0 0 0 9.2-3.84 36.42 36.42 0 0 0 5.68-10.96 53.124 53.124 0 0 1 3.6-8.72 24.88 24.88 0 0 1 21.92-12.24 25.523 25.523 0 0 1 11.76 3.12 22.561 22.561 0 0 1 8.88 8 23.195 23.195 0 0 1 3.28 12.16 30.412 30.412 0 0 1-3.04 12.8 49.35 49.35 0 0 1-8.56 13.2 94.06 94.06 0 0 1-14.56 12.4 168.175 168.175 0 0 0-16 13.76c-7.787 7.04-16.453 15.467-26 25.28a36.378 36.378 0 0 0-6.32 10 26.484 26.484 0 0 0-2.88 10.16 14.16 14.16 0 0 0 4.48 10.4 16.96 16.96 0 0 0 12.48 4.4h78.4a13.84 13.84 0 0 0 10.48-3.6 12.318 12.318 0 0 0 3.44-8.88 11.119 11.119 0 0 0-4.08-9.28zM333.76 222.901a32 32 0 0 0-13.36-2.08h-4.56v-82.48c0-12.373-5.333-18.56-16-18.56a12.08 12.08 0 0 0-8.56 3.36 85.943 85.943 0 0 0-9.12 10.8l-56.48 75.6-3.92 5.2a129.83 129.83 0 0 0-3.12 4.4 21.126 21.126 0 0 0-2.24 4.4 12.004 12.004 0 0 0-.72 4.08 15.999 15.999 0 0 0 5.04 12.48 22 22 0 0 0 15.2 4.56h53.52v20.08a17.599 17.599 0 0 0 3.6 11.84c5.276 5.346 13.887 5.403 19.233.127l.127-.127a17.679 17.679 0 0 0 3.6-11.84v-20h6.48a21.356 21.356 0 0 0 12.16-2.8 10.24 10.24 0 0 0 4.08-9.2 9.6 9.6 0 0 0-4.96-9.84zm-44.4-2.32h-45.84l45.84-61.92v61.92z"/>
	</symbol>
    <symbol id="cash" viewBox="0 0 512 512">
		<path d="M371.9 144L475 171.1 501 68l-19.8-5.2-16.9 64.3C421.1 57.4 344 11 256 11 120.7 11 11 120.7 11 256s109.7 245 245 245c90.3 0 169.1-48.8 211.6-121.5l-17.7-9.6c-39.1 66.4-111.3 111-193.9 111-124.2 0-224.9-100.7-224.9-224.9S131.8 31.1 256 31.1c83.3 0 156.1 45.3 194.9 112.7l-73.8-19.6-5.2 19.8z"/><path d="M266.8 364.7V346c17.7-1 31.2-6.2 41.6-15.6S324 308.5 324 294c0-15.6-4.2-27.1-13.5-34.4-9.4-8.3-22.9-14.6-42.7-18.7h-1V193c13.5 2.1 25 6.2 36.4 14.6l16.7-22.9c-16.7-11.5-34.4-17.7-53.1-18.7v-12.5h-15.6V166c-15.6 1-29.2 6.2-39.6 15.6C201.2 191 196 203.5 196 218s4.2 26 13.5 33.3c8.3 7.3 22.9 13.5 41.6 17.7v48.9c-14.6-2.1-29.2-9.4-43.7-21.9l-18.7 21.9c18.7 16.7 39.6 26 62.5 28.1v18.7h15.6zm1-90.6c10.4 3.1 16.7 6.2 20.8 9.4 3.1 4.2 5.2 8.3 5.2 14.6s-2.1 10.4-7.3 14.6c-5.2 4.2-11.5 6.2-18.7 7.3v-45.9zm-36.4-44.7c-3.1-3.1-5.2-8.3-5.2-13.5 0-6.2 2.1-10.4 6.2-14.6 5.2-4.2 10.4-6.2 18.7-7.3v44.8c-10.4-3.2-16.6-6.3-19.7-9.4z"/>
	</symbol>
    <symbol id="clock" viewBox="0 0 512 512">
		<path d="M371.9 143.9L475 171l26-103.1-19.8-5.2-17 64.9C421.1 57.7 343.9 11.2 255.8 11.2 120.6 11.2 11 120.9 11 256.2s109.6 245 244.8 245c90.2 0 169-48.8 211.5-121.5l-19.3-9.3c-39 65.5-110.4 109.4-192.1 109.4-123.4 0-223.5-100.1-223.5-223.6s100-223.7 223.4-223.7c82.2 0 154.1 44.4 192.9 110.6l-71.6-19-5.2 19.8z"/><path d="M223 89.7v185.5l119.8 58.3 9.3-18.7-108.2-52.1v-173z"/>
	</symbol>
    <symbol id="dog" viewBox="0 0 512 512">
		<path d="M372.256 200.691a7.497 7.497 0 1 0-13.543 6.436 20.338 20.338 0 0 1 1.975 8.807v16.026c0 11.331-9.219 20.549-20.548 20.549-11.331 0-20.549-9.219-20.549-20.549v-16.026c0-11.331 9.219-20.549 20.549-20.549a7.498 7.498 0 0 0 0-14.994c-19.599 0-35.544 15.945-35.544 35.544v16.026c0 19.599 15.945 35.544 35.544 35.544s35.543-15.945 35.543-35.544v-16.026c0-5.33-1.154-10.458-3.427-15.244zM203.979 200.691a7.497 7.497 0 1 0-13.543 6.436 20.338 20.338 0 0 1 1.975 8.807v16.026c0 11.331-9.219 20.549-20.549 20.549s-20.548-9.219-20.548-20.549v-16.026c0-11.331 9.219-20.549 20.548-20.549a7.497 7.497 0 1 0 0-14.994c-19.599 0-35.543 15.945-35.543 35.544v16.026c0 19.599 15.944 35.544 35.543 35.544s35.544-15.945 35.544-35.544v-16.026a35.273 35.273 0 0 0-3.427-15.244z"/><path d="M511.74 146.251c-.254-1.188-6.409-29.411-21.757-58.062-21.044-39.285-49.307-60.049-81.732-60.049-24.426 0-55.284 14.774-59.081 16.639-12.675 4.968-19.89 3.031-32.914-.481-12.744-3.437-30.199-8.144-60.256-8.144s-47.511 4.707-60.256 8.144c-13.023 3.513-20.238 5.45-32.914.481-3.797-1.864-34.655-16.639-59.081-16.639-32.424 0-60.687 20.764-81.732 60.049C6.669 116.84.515 145.064.26 146.251c-.465 2.169-.4 4.389.965 6.139 1.315 1.686 2.863 2.687 4.959 2.826 1.603.688 12.701 6.773 11.941 42.529-.771 36.198 4.35 61.241 8.783 75.874 2.443 8.067 8.828 14.072 17.079 16.062 1.866.451 3.74.671 5.589.671 6.169 0 12.063-2.453 16.459-7.009.276-.286.537-.584.809-.873 10.275 48.897 43.07 88.108 73.642 103.725 3.472 7.191 9.048 13.734 16.5 19.199a66.677 66.677 0 0 0 6.04 3.92c6.557 18.666 23.614 41.598 52.426 51.809 8.374 13.627 23.416 22.737 40.55 22.737s32.177-9.11 40.551-22.737c28.829-10.21 45.791-32.938 52.429-51.811a66.518 66.518 0 0 0 6.036-3.918c7.452-5.465 13.028-12.008 16.5-19.199 30.572-15.617 63.367-54.828 73.642-103.725.272.289.532.587.808.873 4.396 4.556 10.289 7.009 16.459 7.009 1.849 0 3.724-.22 5.589-.671 8.251-1.991 14.636-7.996 17.079-16.062 4.431-14.634 9.552-39.676 8.783-75.874-.761-35.757 10.338-41.842 11.941-42.529 2.096-.139 3.644-1.14 4.959-2.826 1.361-1.749 1.427-3.969.962-6.139zM55.246 272.931c-2.857 2.959-6.367 2.506-7.742 2.174-3.026-.73-5.36-2.91-6.245-5.832-4.117-13.593-8.871-36.981-8.142-71.209.745-35.013-9.327-48.815-16.809-54.227 5.856-21.863 30.908-100.702 87.442-100.702 11.818 0 26.104 4.37 36.828 8.43C100.3 73.678 94.25 122.601 88.377 170.09c-4.777 38.632-9.716 78.579-33.131 102.841zm128.27 144.446a87.962 87.962 0 0 0 20.398 2.377c1.516 0 3.023-.052 4.522-.127v16.669c0 1.804.11 3.582.307 5.334-11.26-6.445-19.609-15.308-25.227-24.253zm105.053 18.919c0 17.959-14.611 32.569-32.569 32.569-17.958 0-32.569-14.611-32.569-32.569v-18.707c9.207-2.098 17.74-5.687 25.072-10.6v21.294a7.498 7.498 0 0 0 14.994 0v-21.294c7.331 4.913 15.865 8.502 25.072 10.6v18.707zm14.685 5.354c.198-1.758.31-3.543.31-5.353v-16.669c1.499.075 3.006.127 4.522.127 7.028 0 13.897-.823 20.423-2.384-5.618 8.985-13.959 17.837-25.255 24.279zm175.63-243.586c.729 34.227-4.026 57.616-8.142 71.209-.885 2.922-3.22 5.102-6.245 5.832-1.377.331-4.885.785-7.741-2.174-23.414-24.262-28.354-64.209-33.131-102.841-3.185-25.755-6.478-52.386-15.297-74.421a7.496 7.496 0 0 0-9.746-4.174 7.495 7.495 0 0 0-4.174 9.746c8.097 20.231 11.128 44.741 14.337 70.689 4.099 33.143 8.317 67.191 23.917 93.747-3.228 29.998-15.668 53.28-25.644 67.623-9.161 13.171-20.179 24.504-31.411 32.511-.771-13.313-8.008-25.609-20.589-34.835-12.021-8.816-27.705-13.85-44.399-14.314-4.77-18.495-27.043-32.098-54.617-32.098s-49.848 13.604-54.617 32.099c-3.566.1-7.118.4-10.592.917A7.497 7.497 0 1 0 193 332.411a73.895 73.895 0 0 1 8.435-.755c4.619 16.7 24.138 25.596 37.62 31.737l.549.25a39.533 39.533 0 0 0 32.799 0l.549-.25c13.482-6.143 33.002-15.037 37.62-31.739 27.856.905 50.12 16.943 50.12 36.532 0 20.168-23.597 36.576-52.602 36.576-14.559 0-28.133-4.126-38.22-11.619-8.164-6.064-19.567-6.063-27.731 0-10.088 7.492-23.661 11.619-38.22 11.619-29.004 0-52.602-16.408-52.602-36.576 0-8.81 4.679-17.362 13.176-24.08a7.497 7.497 0 0 0-9.3-11.762c-11.452 9.056-18.057 20.862-18.797 33.466-11.231-8.007-22.248-19.339-31.408-32.509-9.975-14.343-22.416-37.625-25.644-67.623 15.6-26.555 19.819-60.603 23.917-93.746 3.264-26.39 6.346-51.316 14.759-71.727 8.704-21.117 21.993-34.063 41.661-40.601 15.973 5.638 26.646 2.767 39.972-.828 12.599-3.398 28.281-7.627 56.351-7.627s43.751 4.228 56.351 7.627c7.905 2.132 14.874 4.012 22.571 4.012 5.276 0 10.898-.889 17.393-3.18 10.637 3.533 19.335 8.88 26.477 16.348a7.497 7.497 0 0 0 10.837-10.363c-5.301-5.543-11.407-10.224-18.259-14.007 10.729-4.065 25.044-8.45 36.881-8.45 56.435 0 81.559 78.845 87.437 100.706-7.486 5.413-17.553 19.215-16.808 54.222zM296.583 324.112c0 12.036-17.253 19.896-29.851 25.635l-.551.251a24.528 24.528 0 0 1-20.361 0l-.551-.251c-12.597-5.739-29.851-13.599-29.851-25.635 0-13.31 18.584-24.555 40.582-24.555s40.583 11.245 40.583 24.555z"/>
	</symbol>
    <symbol id="exit" viewBox="0 0 54 54">
		<path d="M46.923 26.618a1 1 0 0 0-.217-.326L30.707 10.293a.999.999 0 1 0-1.414 1.414L43.586 26H1a1 1 0 1 0 0 2h42.586L29.293 42.293a.999.999 0 1 0 1.414 1.414l15.999-15.999a1.001 1.001 0 0 0 .217-1.09zM53 10a1 1 0 0 0-1 1v32a1 1 0 1 0 2 0V11a1 1 0 0 0-1-1z"/>
	</symbol>
    <symbol id="new-file" viewBox="0 0 275.836 275.836">
		<path d="M191.344 20.922l-95.155 95.155a5.99 5.99 0 0 0-1.565 2.734l-8.167 31.454a6.003 6.003 0 0 0 7.315 7.316l31.454-8.168a6.003 6.003 0 0 0 2.734-1.565l95.153-95.153.005-.004.004-.005 19.156-19.156a5.998 5.998 0 0 0 .001-8.484L218.994 1.758a5.998 5.998 0 0 0-8.485 0l-19.155 19.155-.005.004-.005.005zm-70.713 117.286l-19.993 5.192 5.191-19.993 89.762-89.762 14.801 14.802-89.761 89.761zm94.12-123.723l14.801 14.802-10.675 10.675-14.801-14.802 10.675-10.675z"/><path d="M238.037 65.022a6 6 0 0 0-6 6v192.813H43.799V34.417h111.063a6 6 0 0 0 0-12H37.799a6 6 0 0 0-6 6v241.419a6 6 0 0 0 6 6h200.238a6 6 0 0 0 6-6V71.022a6 6 0 0 0-6-6z"/>
	</symbol>
    <symbol id="next-page" viewBox="0 0 294.997 294.997">
		<path d="M286.36 98.016c-13.223-37.091-40.098-66.813-75.675-83.691C175.109-2.554 135.088-4.567 97.997 8.656 60.906 21.879 31.183 48.754 14.305 84.331c-16.877 35.577-18.89 75.597-5.668 112.689a6 6 0 1 0 11.304-4.03C7.794 158.918 9.643 122.155 25.147 89.474s42.807-57.369 76.879-69.515 70.836-10.296 103.516 5.207c32.682 15.504 57.369 42.807 69.516 76.879 12.146 34.072 10.297 70.835-5.207 103.516s-42.807 57.369-76.879 69.515c-38.189 13.613-80.082 9.493-114.935-11.304a6 6 0 1 0-6.149 10.305c23.207 13.848 49.276 20.903 75.541 20.902 16.674 0 33.43-2.845 49.572-8.599 37.092-13.223 66.813-40.098 83.691-75.675 16.878-35.578 18.891-75.598 5.668-112.689z"/><path d="M213.499 147.518a6 6 0 0 0-6-6H58.069a6 6 0 0 0 0 12h149.43a6 6 0 0 0 6-6z"/><path d="M165.686 210.275a5.998 5.998 0 0 0 4.242 10.242 5.982 5.982 0 0 0 4.242-1.757l67-67a5.998 5.998 0 0 0 0-8.485l-67-67a5.999 5.999 0 0 0-8.484 0 5.998 5.998 0 0 0 0 8.485l62.757 62.757-62.757 62.758z"/>
	</symbol>
    <symbol id="notification" viewBox="0 0 512 512">
		<path d="M256 0C114.615 0 0 114.615 0 256s114.615 256 256 256 256-114.615 256-256S397.385 0 256 0zm0 494.933C124.041 494.933 17.067 387.959 17.067 256S124.041 17.067 256 17.067 494.933 124.041 494.933 256 387.959 494.933 256 494.933z"/><path d="M384.085 310.784a31.487 31.487 0 0 0-24.064-12.117c-5.291-2.048-18.688-8.533-18.688-17.067v-76.8c-.072-37.205-24.242-70.076-59.733-81.237v-12.629c0-14.138-11.462-25.6-25.6-25.6s-25.6 11.462-25.6 25.6v12.459c-35.653 11.039-59.901 44.085-59.733 81.408v76.8c0 5.035-4.864 9.387-8.96 12.117a53.266 53.266 0 0 1-9.643 5.035c-19.2.853-32.512 16.384-32.512 38.4v12.715c0 14.138 11.462 25.6 25.6 25.6h68.267c0 23.564 19.103 42.667 42.667 42.667s42.667-19.103 42.667-42.667h68.267c14.138 0 25.6-11.461 25.6-25.6v-12.8a41.91 41.91 0 0 0-8.535-26.284zM247.467 110.933c0-4.713 3.82-8.533 8.533-8.533s8.533 3.82 8.533 8.533v8.533h-17.066v-8.533zM256 401.067c-14.138 0-25.6-11.462-25.6-25.6h51.2c0 14.138-11.462 25.6-25.6 25.6zm119.467-51.2a8.533 8.533 0 0 1-8.533 8.533H145.067a8.533 8.533 0 0 1-8.533-8.533v-12.8c0-10.325 4.523-21.333 17.067-21.333a8.53 8.53 0 0 0 2.731-.427 69.247 69.247 0 0 0 14.848-7.424 31.573 31.573 0 0 0 16.555-26.283v-76.8c.177-31.761 22.078-59.27 52.992-66.56a70.74 70.74 0 0 1 30.379 0c31.088 7.053 53.156 34.682 53.163 66.56v76.8c0 22.528 28.245 32.597 31.403 33.707.881.29 1.803.434 2.731.427a14.676 14.676 0 0 1 12.288 5.632 25.006 25.006 0 0 1 4.779 15.701v12.8z"/>
	</symbol>
    <symbol id="profit" viewBox="0 -39 938.752 938">
		<path d="M860.633 265.543a77.863 77.863 0 0 0-68.715 41.008c-13.594 25.281-12.164 56.004 3.715 79.922L685.199 496.91a77.435 77.435 0 0 0-68.894-8.562 77.443 77.443 0 0 0-48.094 50.086l-145.152-15.258c-2.922-32.04-25.274-58.973-56.227-67.746-30.95-8.782-64.11 2.406-83.426 28.136-19.308 25.739-20.789 60.696-3.707 87.965L125.496 716.594c-33.164-23.73-78.918-18.457-105.805 12.207-26.89 30.656-26.156 76.699 1.696 106.488 27.851 29.79 73.75 33.602 106.14 8.836 32.387-24.766 40.727-70.066 19.278-104.746L301.004 594.32a77.342 77.342 0 0 0 69.672 10.293 77.308 77.308 0 0 0 49.137-50.445l145.156 15.258c3.09 32.234 25.843 59.187 57.105 67.652 31.27 8.469 64.508-3.324 83.434-29.61 18.941-26.28 19.61-61.542 1.687-88.519L817.63 408.512c27.824 18.476 64.32 17.172 90.77-3.227 26.44-20.398 36.956-55.37 26.156-86.976-10.797-31.602-40.524-52.817-73.922-52.766zM80.73 827.07c-25.84 0-46.796-20.945-46.796-46.793 0-25.84 20.957-46.793 46.796-46.793 25.84 0 46.797 20.953 46.797 46.793 0 25.848-20.957 46.793-46.797 46.793zm265.168-249.566c-25.843 0-46.796-20.95-46.796-46.797 0-25.84 20.953-46.797 46.796-46.797 25.84 0 46.793 20.957 46.793 46.797 0 25.848-20.953 46.797-46.793 46.797zm296.36 31.195c-25.84 0-46.79-20.949-46.79-46.797 0-25.84 20.95-46.789 46.79-46.789 25.844 0 46.797 20.95 46.797 46.79 0 25.847-20.953 46.796-46.797 46.796zm218.375-218.375c-25.84 0-46.793-20.945-46.793-46.789s20.953-46.797 46.793-46.797c25.844 0 46.793 20.953 46.793 46.797 0 25.844-20.95 46.79-46.793 46.79zm0 0M33.934 405.926c4.14 0 8.109-1.645 11.03-4.57L174.317 272l74.762 74.762c6.098 6.086 15.969 6.086 22.059 0l160.55-160.551L568.84 323.363c6.094 6.09 15.96 6.09 22.058 0L860.633 53.63v24.738c0 8.617 6.98 15.598 15.597 15.598 8.614 0 15.598-6.98 15.598-15.598V15.973a15.506 15.506 0 0 0-1.09-5.438c-.21-.539-.457-1.055-.722-1.57a15.586 15.586 0 0 0-2.18-3.238 13.715 13.715 0 0 0-5.207-3.965c-.149 0-.25-.18-.395-.23a15.631 15.631 0 0 0-5.453-1.079c-.218.016-.363-.078-.55-.078H813.84c-8.617 0-15.598 6.992-15.598 15.598 0 8.613 6.98 15.597 15.598 15.597h24.734L579.867 290.281 442.715 153.13c-6.09-6.082-15.965-6.082-22.059 0L260.11 313.676l-74.757-74.762c-6.098-6.082-15.97-6.082-22.059 0L22.91 379.297c-4.453 4.469-5.797 11.176-3.383 17.004a15.593 15.593 0 0 0 14.407 9.625zm0 0"/>
	</symbol>
    <symbol id="refresh" viewBox="0 0 512 512">
		<path d="M158.2 54.6c91.3-44.8 199.8-22.3 265.5 52l-69.8-11.4-3.1 20.9L457 132.8l5.2-108.5-20.8-1-3.4 69.1c-72.1-80.5-189.7-105-290.1-56.5-106.3 52-160.4 173-127.1 287.8l19.8-5.2c-30.2-105.4 18.7-217 117.6-263.9zM491.2 189.1l-19.8 5.2c30.2 105.3-18.7 215.9-116.6 263.9-91.9 44.6-200.1 22.5-265.9-52.1l70.2 10.4 3.1-19.8L55.1 380 51 487.4l19.8 1 3.4-69C121.6 472.6 188 501 256 501c36.4 0 72.9-8.3 108.2-24 106.2-52.1 160.3-173.1 127-287.9z"/><path d="M167.5 294.5v56.3h176.9v-56.3c0-35.5-28.1-63.6-63.5-63.6h-50c-35.3-.1-63.4 28.1-63.4 63.6zm63.5-41.7h50c22.9 0 42.7 18.8 42.7 42.8V331H188.3v-35.5c0-22.9 18.8-42.7 42.7-42.7zM307 154.7c0-28.2-22.9-51.1-51-51.1s-51 22.9-51 51.1 22.9 51.1 51 51.1 51-22.9 51-51.1zm-81.2 0c0-16.7 13.5-30.2 30.2-30.2s30.2 13.6 30.2 30.2c0 16.7-13.5 30.2-30.2 30.2s-30.2-13.5-30.2-30.2z"/>
	</symbol>
    <symbol id="settings" viewBox="0 0 512 512">
		<path d="M419.792 198.375l-32-55.417c-2.563-4.479-8.021-6.438-12.896-4.688l-42.063 15.375c-8.125-6.094-17.021-11.198-26.583-15.26l-7.75-44.229a10.653 10.653 0 0 0-10.5-8.823h-64a10.652 10.652 0 0 0-10.5 8.823l-7.75 44.229c-9.563 4.063-18.458 9.167-26.583 15.26l-42.063-15.375c-4.875-1.792-10.333.188-12.896 4.688l-32 55.417c-2.604 4.49-1.583 10.188 2.375 13.51L129 240.698c-.667 5.323-1 10.365-1 15.302 0 4.927.333 9.979 1 15.302l-34.417 28.813c-3.958 3.323-4.979 9.021-2.375 13.51l32 55.417c2.583 4.49 8.042 6.448 12.896 4.688l42.063-15.375c8.104 6.083 17.021 11.188 26.583 15.26l7.75 44.229a10.653 10.653 0 0 0 10.5 8.823h64c5.188 0 9.604-3.719 10.5-8.823l7.75-44.229c9.563-4.073 18.479-9.177 26.583-15.26l42.063 15.375c4.833 1.719 10.313-.198 12.896-4.688l32-55.417c2.604-4.49 1.583-10.188-2.375-13.51L383 271.302c.667-5.323 1-10.375 1-15.302 0-4.938-.333-9.979-1-15.302l34.417-28.813c3.958-3.322 4.979-9.02 2.375-13.51zm-55.084 29.802a10.694 10.694 0 0 0-3.667 9.958c1.104 6.438 1.625 12.281 1.625 17.865 0 5.573-.521 11.417-1.625 17.865a10.693 10.693 0 0 0 3.667 9.958l32.125 26.896-23.021 39.896-39.25-14.344a10.604 10.604 0 0 0-10.5 1.823c-9.042 7.542-19.479 13.531-31 17.813a10.64 10.64 0 0 0-6.792 8.156l-7.229 41.271h-46.083l-7.229-41.271a10.64 10.64 0 0 0-6.792-8.156c-11.521-4.281-21.958-10.271-31-17.813-2.958-2.448-6.958-3.146-10.5-1.823l-39.25 14.344-23.021-39.896 32.125-26.896a10.694 10.694 0 0 0 3.667-9.958c-1.104-6.448-1.625-12.292-1.625-17.865 0-5.583.521-11.427 1.625-17.865a10.693 10.693 0 0 0-3.667-9.958l-32.125-26.896 23.021-39.896 39.25 14.344c3.542 1.313 7.542.604 10.5-1.823 9.063-7.552 19.5-13.542 31-17.813a10.624 10.624 0 0 0 6.792-8.156l7.229-41.271h46.083l7.229 41.271a10.623 10.623 0 0 0 6.792 8.156c11.5 4.271 21.938 10.26 31 17.813a10.68 10.68 0 0 0 10.5 1.823l39.25-14.344 23.021 39.896-32.125 26.896z"/><path d="M256 192c-35.292 0-64 28.708-64 64s28.708 64 64 64 64-28.708 64-64-28.708-64-64-64zm0 106.667c-23.521 0-42.667-19.135-42.667-42.667s19.146-42.667 42.667-42.667 42.667 19.135 42.667 42.667-19.146 42.667-42.667 42.667z"/><path d="M256 0C114.833 0 0 114.844 0 256s114.833 256 256 256 256-114.844 256-256S397.167 0 256 0zm0 490.667C126.604 490.667 21.333 385.396 21.333 256S126.604 21.333 256 21.333 490.667 126.604 490.667 256 385.396 490.667 256 490.667z"/>
	</symbol>
    <symbol id="arrows" viewBox="0 0 179.019 179.019">
		<path d="M138.121 138.357c-13.02 13.008-30.312 20.174-48.714 20.174-37.955 0-68.84-30.867-68.876-68.81l14.046 14.064a2.38 2.38 0 0 0 3.359 0 2.39 2.39 0 0 0 0-3.359L19.315 81.797.698 100.426a2.369 2.369 0 0 0 0 3.359 2.34 2.34 0 0 0 1.671.692 2.35 2.35 0 0 0 1.677-.692l11.826-11.832c1.235 39.531 33.689 71.328 73.512 71.328 19.673 0 38.164-7.661 52.079-21.57a2.373 2.373 0 0 0 0-3.353c-.901-.932-2.411-.932-3.342-.001zM178.32 75.234a2.373 2.373 0 0 0-3.353 0L163.152 87.06c-1.247-39.531-33.701-71.322-73.518-71.322-19.685 0-38.17 7.661-52.085 21.57a2.362 2.362 0 0 0 0 3.353 2.362 2.362 0 0 0 3.353 0c13.014-13.008 30.312-20.174 48.714-20.174 37.949 0 68.84 30.861 68.888 68.81l-14.058-14.064a2.38 2.38 0 0 0-3.359 0 2.39 2.39 0 0 0 0 3.359l18.623 18.623 18.617-18.623a2.374 2.374 0 0 0-.007-3.358z"/>
	</symbol>
    <symbol id="user" viewBox="0 0 512 512">
		<path d="M256 0a10.669 10.669 0 0 0-10.063 7.135A10.684 10.684 0 0 0 249.333 19l53.333 42.667c4.625 3.708 11.323 2.917 15-1.667 3.677-4.604 2.927-11.313-1.667-15l-26.635-21.302C403.01 39.948 490.667 137.927 490.667 256c0 105.677-71.323 198.74-173.448 226.302-5.688 1.542-9.052 7.396-7.521 13.083a10.674 10.674 0 0 0 10.292 7.885c.927 0 1.865-.115 2.792-.365C434.188 472.823 512 371.292 512 256 512 114.844 397.156 0 256 0zM262.667 493l-53.333-42.667c-4.604-3.688-11.302-2.917-15 1.667-3.677 4.604-2.927 11.313 1.667 15l26.635 21.302C108.99 472.052 21.333 374.073 21.333 256c0-105.677 71.323-198.74 173.448-226.302 5.688-1.542 9.052-7.396 7.521-13.083-1.542-5.698-7.448-9.021-13.083-7.521C77.813 39.177 0 140.708 0 256c0 141.156 114.844 256 256 256 4.531 0 8.563-2.865 10.063-7.135 1.5-4.271.135-9.032-3.396-11.865z"/><path d="M256 106.667c-41.167 0-74.667 33.5-74.667 74.667C181.333 222.5 214.833 256 256 256s74.667-33.5 74.667-74.667c0-41.166-33.5-74.666-74.667-74.666zm0 128c-29.406 0-53.333-23.927-53.333-53.333S226.594 128 256 128s53.333 23.927 53.333 53.333-23.927 53.334-53.333 53.334zM141.344 307.865c-21.396 11.094-34.677 32.948-34.677 57.042v9.76c0 16.906 13.677 30.667 30.479 30.667h237.708c16.802 0 30.479-13.76 30.479-30.667v-9.76c0-24.094-13.281-45.948-34.677-57.042-26.854-13.927-68.552-30.531-114.656-30.531s-87.802 16.604-114.656 30.531zM384 364.906v9.76c0 5.146-4.104 9.333-9.146 9.333H137.146c-5.042 0-9.146-4.188-9.146-9.333v-9.76c0-16.094 8.875-30.698 23.156-38.104 24.76-12.833 63.042-28.135 104.844-28.135s80.083 15.302 104.844 28.135C375.125 334.208 384 348.813 384 364.906z"/>
	</symbol>
    <symbol id="hamburger" viewBox="0 0 50 50">
		<path d="M0 7.5v5h50v-5zm0 15v5h50v-5zm0 15v5h50v-5z"/>
	</symbol>
</svg>