<svg width="50" height="50" viewBox="0 0 50 50" fill="none" xmlns="http://www.w3.org/2000/svg">
<path d="M40.7409 4.71433H42.6956V0H7.30444V4.71433H9.2594V5.9377C9.2594 13.6179 11.8878 20.6617 16.2168 24.8408C11.8878 29.0206 9.2594 36.0639 9.2594 43.7444V45.2858H7.30444V50H42.6956V45.2858H40.7409V43.7444C40.7409 36.0639 38.112 29.0207 33.7836 24.8408C38.112 20.6617 40.7409 13.6191 40.7409 5.9377V4.71433ZM30.4864 23.611L28.8632 24.8408L30.4864 26.0705C34.5372 29.1424 37.2561 35.3623 37.6151 42.2012H12.3858C12.7446 35.3629 15.4623 29.1431 19.5143 26.0705L21.1366 24.8408L19.5143 23.611C15.4629 20.5388 12.7446 14.3198 12.3858 7.48087H37.6141C37.2561 14.3198 34.5371 20.5388 30.4864 23.611ZM15.6383 9.93311H34.3616C34.091 15.1258 32.026 19.8488 28.9479 22.1814C28.9479 22.1814 28.4209 22.409 27.717 23.1145C26.2609 25.1939 26.1832 32.7949 26.1808 33.13C27.2263 33.2416 28.3558 33.6828 29.4751 34.7052C33.4245 38.3136 34.5704 38.7392 34.7082 41.3587H16.1902C16.3279 38.7399 18.5748 36.8657 21.423 34.7052C21.423 34.7052 22.778 33.516 24.6785 33.1861C24.6439 33.1264 24.6236 33.0861 24.6236 33.0861C24.6236 25.9265 22.2829 22.8566 22.2829 22.8566L20.6191 21.9235C17.542 19.5894 15.9098 15.1259 15.6383 9.93311Z" fill="white" fill-opacity="0.5"/>
</svg>
