<svg width="50" height="50" viewBox="0 0 50 50" fill="none" xmlns="http://www.w3.org/2000/svg">
<path d="M48.8787 39.5147L41.157 31.7922C39.6189 30.2603 37.0719 30.3069 35.4803 31.899L31.5901 35.7884C31.3443 35.653 31.0899 35.5115 30.8225 35.3614C28.3658 34.0002 25.0035 32.1345 21.4653 28.5937C17.9167 25.0455 16.0493 21.678 14.6839 19.2198C14.5399 18.9594 14.4018 18.7083 14.2655 18.4698L16.8764 15.8628L18.16 14.5776C19.7541 12.9831 19.798 10.4368 18.2636 8.90054L10.5419 1.17711C9.00746 -0.357033 6.45932 -0.310491 4.86527 1.28398L2.68903 3.47272L2.7485 3.53176C2.01878 4.46288 1.409 5.53678 0.955219 6.69485C0.536921 7.7972 0.27649 8.84912 0.157407 9.9032C-0.862194 18.3559 3.00046 26.0811 13.4832 36.564C27.9735 51.0533 39.6508 49.9587 40.1546 49.9053C41.2518 49.7741 42.3033 49.512 43.3718 49.097C44.5199 48.6485 45.593 48.0396 46.5236 47.3114L46.5711 47.3537L48.7758 45.1948C50.3666 43.6006 50.4124 41.0535 48.8787 39.5147Z" fill="white" fill-opacity="0.5"/>
</svg>
