<svg width="50" height="38" viewBox="0 0 50 38" fill="none" xmlns="http://www.w3.org/2000/svg">
<path d="M46.875 0.25H3.125C1.39919 0.25 0 1.64919 0 3.375V34.625C0 36.3508 1.39919 37.75 3.125 37.75H46.875C48.6008 37.75 50 36.3508 50 34.625V3.375C50 1.64919 48.6008 0.25 46.875 0.25ZM41.919 6.5L37.5001 12.75H12.5L8.07967 6.5H41.9191H41.919ZM34.375 28.375H15.625C12.1781 28.375 9.375 25.5719 9.375 22.125C9.375 18.6781 12.1781 15.875 15.625 15.875C19.0719 15.875 21.875 18.6781 21.875 22.125C21.875 23.2685 21.5441 24.3271 21.0058 25.25H28.9942C28.4559 24.3271 28.125 23.2685 28.125 22.125C28.125 18.6781 30.9281 15.875 34.375 15.875C37.8219 15.875 40.625 18.6781 40.625 22.125C40.625 25.572 37.8219 28.375 34.375 28.375Z" fill="white" fill-opacity="0.5"/>
</svg>
