<svg width="50" height="50" viewBox="0 0 50 50" fill="none" xmlns="http://www.w3.org/2000/svg">
<path d="M16.2824 19.077C21.5419 19.077 25.8208 14.798 25.8208 9.53851C25.8208 4.27901 21.5419 0 16.2824 0C11.0229 0 6.7439 4.27901 6.7439 9.53851C6.7439 14.798 11.0229 19.077 16.2824 19.077Z" fill="white" fill-opacity="0.5"/>
<path d="M18.0614 35.4777C18.0614 29.8355 20.7705 24.808 24.9692 21.5983C22.8003 20.2287 20.3228 19.3806 17.749 19.1454V30.2469H14.8155V19.144C6.53889 19.888 0.0302734 26.8622 0.0302734 35.3292V43.1403H19.6664C19.6081 43.0129 19.5511 42.8846 19.4958 42.7552C18.544 40.5317 18.0614 38.0831 18.0614 35.4777Z" fill="white" fill-opacity="0.5"/>
<path d="M43.693 34.0109H49.9692C49.2797 27.1315 43.7932 21.645 36.9138 20.9553V27.2316H33.9802V20.9855C27.1584 21.8111 21.7572 27.2356 21.0693 34.0109H27.2032V36.9445H21.0562C21.2547 39.327 21.9362 41.3946 22.9647 43.1403H23.0299C24.5069 45.5252 26.6512 47.455 29.2003 48.6672C30.7093 49.3532 32.3311 49.7918 33.9802 49.9771V43.7219H36.9138V49.9999C43.7932 49.3104 49.2796 43.8239 49.9692 36.9445H43.693V34.0109ZM35.5617 37.405L30.0726 33.4637L31.7836 31.0807L35.2227 33.5501L40.726 27.9043L42.8266 29.9518L35.5617 37.405Z" fill="white" fill-opacity="0.5"/>
</svg>
