<svg xmlns="http://www.w3.org/2000/svg" width="512" height="512"><g fill="#ccc"><path d="M256 0a10.669 10.669 0 0 0-10.063 7.135A10.684 10.684 0 0 0 249.333 19l53.333 42.667c4.625 3.708 11.323 2.917 15-1.667 3.677-4.604 2.927-11.313-1.667-15l-26.635-21.302C403.01 39.948 490.667 137.927 490.667 256c0 105.677-71.323 198.74-173.448 226.302-5.688 1.542-9.052 7.396-7.521 13.083a10.674 10.674 0 0 0 10.292 7.885c.927 0 1.865-.115 2.792-.365C434.188 472.823 512 371.292 512 256 512 114.844 397.156 0 256 0zM262.667 493l-53.333-42.667c-4.604-3.688-11.302-2.917-15 1.667-3.677 4.604-2.927 11.313 1.667 15l26.635 21.302C108.99 472.052 21.333 374.073 21.333 256c0-105.677 71.323-198.74 173.448-226.302 5.688-1.542 9.052-7.396 7.521-13.083-1.542-5.698-7.448-9.021-13.083-7.521C77.813 39.177 0 140.708 0 256c0 141.156 114.844 256 256 256 4.531 0 8.563-2.865 10.063-7.135 1.5-4.271.135-9.032-3.396-11.865z"/><path d="M256 106.667c-41.167 0-74.667 33.5-74.667 74.667C181.333 222.5 214.833 256 256 256s74.667-33.5 74.667-74.667c0-41.166-33.5-74.666-74.667-74.666zm0 128c-29.406 0-53.333-23.927-53.333-53.333S226.594 128 256 128s53.333 23.927 53.333 53.333-23.927 53.334-53.333 53.334zM141.344 307.865c-21.396 11.094-34.677 32.948-34.677 57.042v9.76c0 16.906 13.677 30.667 30.479 30.667h237.708c16.802 0 30.479-13.76 30.479-30.667v-9.76c0-24.094-13.281-45.948-34.677-57.042-26.854-13.927-68.552-30.531-114.656-30.531s-87.802 16.604-114.656 30.531zM384 364.906v9.76c0 5.146-4.104 9.333-9.146 9.333H137.146c-5.042 0-9.146-4.188-9.146-9.333v-9.76c0-16.094 8.875-30.698 23.156-38.104 24.76-12.833 63.042-28.135 104.844-28.135s80.083 15.302 104.844 28.135C375.125 334.208 384 348.813 384 364.906z"/></g></svg>